<svg xmlns="http://www.w3.org/2000/svg" viewBox="0 0 5418 1263" fill="#FFFFFF" role="img" aria-label="sidecar">
<g transform="translate(0.000000,1263.000000) scale(0.100000,-0.100000)">
<path d="M17036 12621 c-4 -5 -24 -12 -47 -16 -101 -17 -261 -102 -355 -188
-108 -99 -201 -246 -237 -377 -29 -105 -38 -245 -23 -350 8 -52 22 -115 30
-139 9 -24 16 -50 16 -57 0 -8 -38 -39 -85 -69 -47 -30 -124 -80 -171 -110
-47 -31 -118 -77 -157 -102 -108 -69 -160 -116 -187 -170 -23 -45 -24 -60 -28
-238 -4 -249 -9 -239 123 -241 117 -1 174 -11 182 -31 4 -9 -17 -37 -53 -74
-57 -57 -59 -62 -59 -112 0 -49 4 -57 76 -152 132 -173 151 -185 305 -202 52
-6 105 14 163 58 13 11 40 19 59 19 29 0 502 -76 750 -121 34 -6 77 -8 96 -5
77 15 156 105 156 178 -1 76 -64 158 -138 177 -20 6 -195 35 -388 66 -482 77
-453 70 -485 129 -32 59 -74 104 -108 118 -14 6 -91 11 -171 13 l-145 2 4 134
c2 74 7 141 11 149 5 8 68 51 142 96 73 45 173 107 222 138 49 31 94 56 101
56 7 0 43 -20 81 -45 287 -189 652 -173 922 40 130 102 241 264 288 420 27 92
25 325 -4 423 -52 178 -150 325 -284 429 -60 46 -234 133 -265 133 -10 0 -31
7 -47 15 -32 17 -281 22 -290 6z m316 -414 c93 -43 155 -110 199 -216 27 -64
31 -86 30 -160 -1 -134 -45 -234 -144 -328 -62 -59 -132 -94 -223 -111 -50
-10 -74 -10 -134 3 -242 51 -387 266 -341 507 24 133 112 247 230 301 89 41
121 47 223 42 71 -4 99 -11 160 -38z"/>
<path d="M10820 12520 c-223 -53 -389 -167 -509 -347 -66 -100 -90 -162 -122
-318 -70 -338 116 -704 436 -861 104 -50 210 -74 339 -74 183 0 341 53 488
166 31 24 66 44 77 44 11 0 58 -21 104 -47 45 -27 137 -77 203 -112 182 -95
172 -81 186 -242 6 -74 9 -143 5 -152 -5 -13 -19 -17 -54 -17 -67 0 -170 -26
-220 -56 -25 -14 -53 -43 -68 -69 -15 -24 -34 -46 -43 -49 -9 -3 -89 -17 -177
-31 -88 -15 -246 -42 -351 -61 -106 -19 -203 -34 -217 -34 -15 0 -49 -5 -78
-11 -147 -32 -205 -210 -101 -313 66 -67 114 -68 402 -12 289 56 521 96 556
96 36 0 44 -4 65 -37 35 -54 73 -78 122 -78 40 1 208 33 312 61 60 16 139 72
185 131 18 24 41 48 52 54 25 13 252 32 294 25 49 -10 324 -224 324 -253 0 -7
-33 -29 -72 -49 -191 -95 -313 -223 -359 -375 -28 -93 -22 -192 24 -404 21
-93 44 -201 53 -240 8 -38 21 -95 29 -125 8 -30 29 -116 46 -190 17 -74 51
-214 75 -310 23 -96 57 -237 74 -314 l31 -138 -30 -67 c-16 -36 -48 -124 -71
-196 -113 -354 -249 -617 -425 -827 -110 -132 -275 -242 -420 -281 -146 -39
-216 -47 -394 -47 -387 0 -683 98 -862 287 -61 64 -89 111 -122 207 -18 53
-21 84 -21 231 0 192 11 258 76 470 40 130 53 166 111 305 47 112 164 337 193
371 8 8 14 19 14 22 0 8 80 122 149 212 25 33 86 102 135 152 227 236 518 391
880 469 67 14 84 22 117 55 l39 39 0 100 0 99 -35 36 c-36 36 -45 38 -125 35
-114 -4 -336 -76 -528 -170 -246 -120 -415 -243 -608 -442 -112 -116 -262
-306 -325 -410 -39 -67 -41 -68 -170 -40 -69 14 -136 17 -369 17 -307 0 -350
-5 -520 -62 -212 -71 -340 -196 -402 -396 -33 -102 -32 -264 1 -357 61 -168
117 -229 271 -294 36 -15 92 -33 125 -41 204 -46 206 -46 238 -35 54 18 76 44
87 101 28 146 0 198 -115 213 -80 10 -182 56 -238 106 l-50 46 -1 74 c-1 70 1
79 34 128 60 91 155 141 310 163 104 15 555 6 576 -12 12 -10 12 -15 -1 -38
-16 -29 -32 -69 -66 -156 -13 -33 -27 -64 -31 -70 -4 -5 -8 -18 -8 -28 0 -10
-6 -33 -14 -50 -17 -39 -70 -231 -87 -312 -29 -147 -38 -384 -19 -502 32 -199
150 -410 302 -545 63 -56 161 -128 173 -128 2 0 26 -13 52 -28 106 -62 303
-135 458 -169 117 -26 588 -26 690 0 298 75 447 147 625 300 174 150 436 523
510 726 13 34 29 61 36 61 7 0 17 -17 22 -37 5 -21 30 -123 55 -228 70 -287
117 -494 117 -510 0 -8 -15 -21 -34 -30 -73 -35 -127 -103 -256 -320 -29 -49
-90 -151 -135 -225 -148 -243 -632 -1062 -695 -1175 -19 -34 -297 -502 -360
-607 -11 -18 -23 -40 -27 -48 -3 -8 -129 -220 -279 -470 -149 -250 -282 -473
-294 -495 -12 -22 -33 -52 -47 -67 -25 -26 -28 -26 -113 -21 -48 3 -99 3 -113
-1 -39 -9 -121 -97 -157 -167 -17 -34 -63 -107 -102 -162 -39 -55 -71 -107
-72 -116 -1 -14 29 -16 294 -19 331 -3 330 -3 425 71 l50 39 110 -7 c60 -3
537 -9 1059 -13 l950 -7 7 -30 c3 -16 14 -68 24 -115 49 -238 151 -572 243
-802 51 -126 199 -414 266 -517 153 -236 377 -488 544 -615 167 -127 369 -233
547 -289 378 -117 724 -114 1090 9 480 161 903 549 1194 1097 247 462 409
1045 483 1727 20 190 17 819 -6 1025 -29 265 -54 432 -86 560 -5 22 -19 81
-30 130 -57 244 -152 532 -253 765 -48 112 -146 302 -182 356 -16 23 -22 41
-16 47 5 5 44 13 86 18 195 22 329 153 329 324 0 78 -7 94 -87 215 -117 177
-247 323 -389 437 -40 32 -82 66 -93 76 -11 10 -74 55 -140 99 -177 117 -400
222 -630 295 -48 15 -87 33 -90 42 -8 19 -44 191 -51 241 -3 19 -11 60 -19 90
-7 30 -21 89 -30 130 -8 41 -35 158 -59 260 -48 205 -76 344 -76 376 0 12 13
48 29 80 70 145 101 244 132 422 30 178 25 272 -27 497 -59 253 -193 505 -361
681 -120 125 -218 192 -396 268 -297 126 -585 141 -878 46 -156 -51 -264 -113
-394 -225 -80 -69 -119 -95 -142 -95 -10 0 -52 29 -92 65 -42 36 -91 70 -112
76 -47 15 -102 -2 -246 -73 -100 -50 -103 -50 -168 -43 -56 6 -74 13 -127 52
-35 26 -92 73 -128 106 -99 91 -199 163 -276 199 l-69 33 -195 -1 c-136 -1
-197 2 -202 10 -4 6 -8 52 -8 102 0 141 -19 342 -36 383 -21 51 -59 87 -134
129 -36 20 -74 42 -85 49 -11 7 -27 16 -35 20 -8 4 -48 26 -88 50 -40 24 -74
43 -76 43 -3 0 -39 20 -80 45 -42 25 -80 45 -85 45 -4 0 -17 10 -29 23 -22 23
-22 23 -3 72 34 90 46 211 32 317 -21 154 -55 246 -138 370 -178 270 -515 410
-813 338z m245 -365 c132 -31 248 -117 299 -222 126 -256 6 -539 -269 -633
-193 -67 -421 39 -517 240 -24 51 -48 138 -48 174 0 39 34 173 52 207 69 126
164 201 300 234 73 18 106 18 183 0z m4098 -2049 c105 -27 230 -84 309 -143
70 -51 200 -202 259 -301 27 -45 49 -88 49 -95 0 -7 4 -17 9 -23 5 -5 18 -43
30 -84 12 -41 26 -88 32 -105 6 -16 13 -102 16 -190 8 -245 -25 -387 -134
-573 -146 -250 -343 -399 -618 -468 -103 -26 -322 -23 -436 6 -235 60 -427
185 -562 368 -111 149 -148 234 -181 411 -37 193 -10 379 84 600 91 212 297
437 485 529 206 101 435 125 658 68z m-1356 -267 c8 -8 3 -24 -22 -58 -73
-103 -130 -243 -171 -418 -24 -103 -28 -140 -28 -288 -1 -185 9 -252 65 -419
48 -143 96 -230 205 -371 77 -100 141 -161 270 -256 173 -127 338 -197 586
-245 69 -13 119 -16 250 -11 90 3 179 10 198 16 19 5 64 17 100 27 120 32 300
125 417 216 35 26 69 48 77 48 17 0 26 -21 26 -59 0 -15 6 -47 14 -72 7 -24
21 -87 31 -139 9 -52 29 -149 45 -215 41 -175 41 -173 30 -180 -6 -3 -80 -3
-166 1 -146 6 -156 8 -164 28 -11 28 -66 79 -110 102 -33 18 -71 19 -777 18
l-741 -1 -70 -47 c-76 -50 -127 -115 -138 -173 -10 -54 6 -152 71 -428 42
-178 108 -468 120 -525 7 -36 20 -96 29 -135 8 -38 22 -104 31 -145 19 -90 56
-254 84 -370 11 -47 34 -146 51 -220 16 -74 37 -162 45 -195 17 -71 51 -219
66 -290 28 -131 43 -194 54 -235 13 -43 22 -85 59 -260 9 -41 23 -102 31 -135
31 -126 83 -353 100 -430 45 -207 96 -383 118 -412 5 -8 32 -13 61 -13 94 0
139 -44 139 -133 0 -105 -62 -159 -201 -172 -97 -10 -132 -2 -176 43 -50 49
-62 75 -69 147 -4 33 -18 94 -32 135 -25 72 -78 272 -95 355 -4 22 -18 76 -30
120 -20 72 -57 221 -94 375 -7 30 -28 109 -46 175 -17 66 -43 165 -56 220 -27
112 -53 217 -113 445 -37 143 -72 293 -181 780 -23 102 -59 257 -80 345 -21
88 -55 234 -75 325 -20 91 -54 239 -76 330 -22 91 -48 203 -59 250 -11 47 -47
198 -80 335 -33 138 -67 282 -76 320 -9 39 -27 113 -40 165 -13 52 -35 147
-49 210 -30 138 -94 417 -136 594 -49 205 -80 357 -86 413 -4 43 -1 59 22 102
48 87 116 141 281 224 218 109 345 154 545 196 3 0 10 -4 16 -10z m861 -2594
c27 -9 7 -25 -105 -81 -128 -63 -307 -169 -355 -209 -32 -27 -48 -25 -48 7 0
21 -23 129 -45 212 -8 26 -11 54 -8 62 3 10 32 14 106 16 121 4 437 -2 455 -7z
m1111 -180 c53 -9 119 -20 146 -26 28 -5 71 -14 98 -19 26 -5 62 -13 80 -19
17 -5 59 -17 92 -26 311 -89 577 -222 776 -388 60 -50 207 -196 279 -278 52
-59 68 -84 61 -93 -23 -27 -168 -36 -636 -39 l-470 -2 -42 23 c-23 13 -69 48
-102 77 -275 245 -552 368 -863 382 -169 8 -321 -23 -520 -104 -62 -26 -231
-127 -306 -184 -36 -27 -70 -48 -76 -46 -9 3 -43 176 -45 229 -2 30 243 210
407 301 136 75 305 141 448 176 205 49 492 64 673 36z m-369 -800 c145 -52
240 -105 383 -209 209 -152 247 -176 342 -209 17 -6 178 -13 375 -16 l344 -6
59 -88 c32 -49 72 -114 89 -145 42 -77 128 -249 128 -255 0 -3 18 -43 39 -90
45 -93 53 -116 117 -307 85 -251 148 -514 188 -775 43 -283 51 -404 51 -765
-1 -360 -11 -508 -50 -725 -8 -44 -22 -120 -31 -170 -80 -453 -252 -930 -451
-1254 -170 -275 -415 -523 -654 -663 -340 -200 -774 -243 -1164 -116 -339 111
-668 415 -917 848 -50 88 -66 119 -132 263 -85 182 -209 563 -274 837 -16 66
-61 338 -78 465 -58 449 -54 920 11 1213 12 53 32 18 68 -120 31 -122 82 -302
142 -503 8 -27 21 -83 30 -124 28 -142 163 -321 294 -391 62 -32 175 -50 327
-50 l151 0 69 34 c106 54 165 126 210 256 15 44 19 83 19 196 -1 160 -17 235
-71 319 -40 63 -67 89 -134 123 -29 15 -57 34 -61 42 -4 8 -15 58 -24 110 -18
102 -38 199 -60 295 -12 51 -42 192 -85 398 -15 74 -14 80 41 190 66 133 125
220 202 297 170 170 374 213 566 119 164 -81 373 -354 466 -610 35 -97 85
-255 85 -270 0 -8 6 -35 14 -60 7 -24 21 -78 29 -119 59 -281 72 -410 72 -735
0 -274 -7 -369 -41 -585 -73 -451 -223 -816 -415 -1008 -157 -157 -324 -220
-466 -176 -156 47 -263 138 -391 333 -97 147 -196 402 -227 583 -3 21 -16 50
-28 64 l-22 25 -130 -11 c-173 -15 -178 -18 -173 -78 9 -95 82 -342 148 -497
74 -175 111 -239 232 -403 109 -148 288 -287 438 -340 92 -33 225 -55 289 -47
195 24 348 93 502 228 113 98 178 178 264 319 118 194 252 549 301 798 60 305
78 491 79 795 1 726 -182 1377 -505 1805 -104 137 -272 277 -390 324 -98 40
-118 46 -200 62 -121 23 -244 12 -392 -37 -138 -45 -309 -168 -414 -298 -53
-65 -74 -75 -74 -35 0 26 -19 114 -46 210 -8 28 -14 59 -14 69 0 10 -16 89
-37 177 l-36 159 29 30 c70 75 271 216 361 255 53 22 181 64 228 74 22 5 105
8 185 6 129 -3 154 -6 220 -31z m-2016 -470 l15 -70 -56 -125 c-30 -68 -86
-217 -124 -330 -99 -297 -131 -421 -178 -685 -17 -94 -35 -195 -40 -225 -27
-145 -44 -435 -44 -725 0 -343 1 -350 90 -439 72 -71 120 -91 231 -92 52 -1
97 -6 102 -10 4 -5 10 -55 14 -110 4 -76 3 -104 -7 -111 -14 -12 -1482 -18
-1684 -7 -100 5 -133 10 -133 20 0 7 13 32 29 56 16 24 46 75 67 113 21 39 82
143 136 233 54 90 98 165 98 166 0 2 41 72 90 155 50 84 90 154 90 157 0 2
116 199 258 437 142 237 276 464 298 502 43 74 133 224 219 365 67 109 201
338 300 510 115 201 191 308 207 292 4 -4 14 -39 22 -77z m175 -697 c5 -13 19
-70 32 -128 12 -58 33 -141 45 -184 31 -102 30 -131 -3 -170 -14 -17 -39 -60
-55 -96 -39 -85 -117 -321 -128 -385 -5 -27 -18 -90 -28 -140 -24 -110 -41
-251 -50 -410 -7 -114 -8 -120 -29 -123 -16 -2 -24 3 -28 20 -3 13 -1 170 4
348 13 418 42 625 146 1036 25 100 45 187 45 192 0 21 20 62 30 62 6 0 14 -10
19 -22z"/>
<path d="M14761 9850 c-218 -58 -405 -206 -496 -395 -69 -144 -89 -227 -90
-380 0 -109 4 -142 23 -205 58 -183 138 -291 292 -394 144 -96 303 -133 488
-115 261 27 508 195 613 419 45 94 66 174 72 270 15 222 -43 393 -192 569
-164 194 -469 294 -710 231z m254 -297 c121 -37 248 -136 289 -226 49 -106 70
-248 47 -323 -46 -148 -148 -276 -263 -333 -95 -46 -167 -56 -251 -37 -125 29
-217 88 -276 175 -45 68 -65 115 -86 203 -14 60 -14 74 0 145 42 209 177 352
385 407 58 15 74 14 155 -11z"/>
<path d="M26727 10144 c-136 -33 -295 -144 -373 -261 -75 -113 -101 -184 -113
-315 -12 -129 0 -227 41 -326 143 -345 545 -488 898 -320 72 34 100 56 181
137 137 137 170 216 177 416 6 188 -28 298 -134 437 -24 31 -68 77 -96 103
-61 53 -188 118 -266 134 -72 15 -244 12 -315 -5z"/>
<path d="M32521 10087 c-7 -10 -11 -397 -12 -1365 0 -744 -4 -1354 -8 -1356
-10 -7 -24 5 -51 44 -99 145 -307 339 -476 442 -255 157 -504 242 -857 292
-145 21 -492 21 -630 1 -208 -32 -449 -95 -574 -151 -17 -8 -33 -14 -36 -14
-3 0 -45 -19 -94 -41 -158 -74 -353 -198 -498 -318 -16 -14 -84 -79 -150 -146
-376 -375 -621 -877 -702 -1435 -14 -98 -18 -186 -18 -405 1 -259 3 -292 28
-437 64 -366 166 -649 332 -918 178 -289 345 -470 620 -677 285 -213 667 -366
1075 -429 161 -26 560 -26 710 -1 454 76 767 221 1038 479 74 70 202 205 250
263 17 20 26 25 31 16 4 -6 9 -157 10 -334 2 -206 6 -326 13 -334 13 -16 953
-19 963 -4 7 13 7 6805 -1 6826 -5 13 -61 15 -479 15 -381 0 -475 -3 -484 -13z
m-1301 -2877 c132 -22 212 -41 290 -71 30 -11 66 -24 80 -29 57 -18 197 -96
273 -153 189 -139 309 -270 424 -462 21 -37 110 -219 125 -260 16 -40 38 -113
57 -190 25 -98 43 -312 38 -445 -8 -200 -24 -300 -77 -475 -51 -170 -157 -357
-290 -510 -233 -269 -512 -430 -867 -500 -166 -33 -403 -35 -574 -5 -228 41
-454 133 -622 254 -317 226 -536 576 -619 987 -19 97 -23 143 -22 304 1 166 4
206 28 320 50 238 112 390 238 581 177 268 472 494 761 583 280 86 527 110
757 71z"/>
<path d="M5830 9014 c-266 -16 -545 -51 -758 -94 -132 -27 -444 -117 -556
-160 -208 -81 -386 -191 -517 -320 -202 -200 -309 -409 -375 -730 -23 -110
-26 -150 -27 -335 -1 -184 2 -223 22 -315 13 -58 27 -125 32 -150 22 -114 59
-217 125 -350 145 -289 351 -454 594 -472 33 -3 35 -5 41 -48 7 -63 32 -104
82 -138 142 -99 435 -258 627 -342 52 -23 109 -48 125 -55 17 -8 102 -44 190
-80 88 -37 174 -73 190 -80 17 -7 91 -34 165 -60 74 -26 164 -57 200 -70 80
-29 336 -115 445 -148 207 -65 817 -224 930 -242 22 -4 94 -17 160 -31 106
-20 211 -38 445 -74 396 -61 1010 -86 1385 -55 185 15 231 22 370 57 205 50
234 74 215 180 -13 69 -35 117 -77 167 l-29 34 -95 -17 c-52 -10 -128 -24
-169 -31 -41 -8 -160 -21 -265 -31 -435 -38 -1152 18 -1740 137 -190 38 -536
116 -595 133 -25 8 -74 21 -110 31 -36 10 -83 23 -105 30 -22 7 -92 28 -155
45 -132 37 -274 81 -375 117 -38 13 -101 34 -140 47 -38 13 -81 29 -95 34 -14
6 -65 25 -115 42 -49 18 -146 55 -215 82 -69 28 -138 56 -155 62 -16 6 -34 14
-40 17 -5 4 -68 32 -140 62 -130 56 -402 190 -420 208 -13 13 8 30 100 79 44
24 85 46 90 50 6 4 35 21 65 37 30 17 82 45 115 63 142 79 428 212 515 240 14
5 50 18 80 30 61 23 147 52 230 76 30 9 66 20 80 25 59 19 327 81 470 108 141
27 248 41 516 71 119 13 610 13 749 -1 61 -5 157 -16 215 -24 58 -8 137 -17
175 -20 39 -4 90 -10 115 -15 25 -5 77 -14 115 -20 39 -7 92 -16 118 -20 58
-11 93 0 102 32 4 13 20 48 34 78 15 30 38 83 50 118 22 59 23 64 7 81 -10 11
-30 70 -46 133 -156 621 -292 902 -577 1191 -200 202 -403 325 -732 442 -298
107 -573 157 -1045 190 -253 17 -322 17 -616 -1z m612 -364 c488 -49 726 -92
950 -170 266 -92 425 -187 589 -350 118 -117 184 -211 264 -375 93 -192 205
-559 178 -586 -6 -6 -48 -4 -114 6 -57 9 -153 20 -214 25 -60 5 -144 14 -185
19 -131 18 -563 13 -800 -9 -222 -20 -382 -41 -460 -58 -25 -6 -83 -18 -130
-27 -310 -61 -549 -132 -855 -255 -44 -18 -98 -39 -120 -48 -61 -23 -472 -226
-540 -266 -33 -20 -69 -40 -80 -46 -11 -6 -47 -26 -80 -45 -130 -76 -166 -89
-248 -93 -99 -5 -150 9 -253 70 -152 89 -243 217 -317 444 -54 165 -67 261
-67 485 0 264 25 394 110 576 60 129 122 202 260 309 176 136 395 222 785 308
325 71 1022 116 1327 86z"/>
<path d="M23250 8164 c-83 -6 -275 -33 -360 -50 -238 -51 -410 -116 -595 -227
-121 -72 -205 -140 -305 -244 -192 -198 -279 -363 -346 -648 -26 -109 -26
-493 -1 -600 35 -149 90 -276 173 -401 97 -146 277 -294 486 -397 251 -125
595 -238 1143 -375 462 -117 674 -201 786 -312 117 -116 147 -241 104 -425
-25 -102 -135 -231 -250 -292 -302 -159 -841 -163 -1208 -8 -156 66 -299 176
-373 285 -36 52 -94 173 -94 194 0 8 -4 18 -10 21 -5 3 -10 14 -10 24 0 11 -8
29 -18 41 l-19 23 -209 -78 c-311 -115 -708 -275 -717 -288 -4 -7 -5 -19 -3
-27 31 -102 132 -310 203 -418 76 -115 288 -327 408 -408 241 -164 552 -285
905 -353 331 -64 758 -61 1092 8 245 51 355 88 543 181 349 174 601 450 709
775 59 176 69 245 70 460 0 200 -13 305 -54 435 -115 357 -369 605 -815 795
-51 21 -310 106 -395 129 -36 10 -83 24 -105 31 -37 12 -64 19 -227 61 -35 9
-83 22 -108 29 -25 7 -74 20 -110 30 -233 62 -461 132 -550 168 -150 61 -241
127 -295 212 -72 115 -90 221 -56 336 45 150 144 251 326 330 210 92 564 96
832 10 116 -37 178 -68 253 -126 93 -71 156 -150 213 -264 29 -57 58 -106 65
-109 7 -2 23 0 35 6 12 6 40 18 62 25 22 8 103 38 180 67 77 28 156 58 175 65
71 26 117 44 195 75 44 18 98 39 120 47 22 9 54 22 72 29 17 8 36 14 42 14 57
0 -2 167 -125 350 -65 98 -203 250 -297 328 -279 234 -645 388 -1057 446 -107
15 -381 27 -480 20z"/>
<path d="M36740 8159 c-271 -13 -542 -70 -810 -170 -81 -31 -333 -164 -430
-227 -335 -218 -612 -543 -811 -947 -181 -371 -269 -754 -269 -1180 0 -273 61
-614 155 -870 86 -235 267 -557 422 -749 79 -97 239 -253 363 -353 278 -224
630 -379 1038 -457 219 -42 317 -51 557 -51 301 0 493 24 780 96 351 88 657
247 932 483 133 115 167 151 281 295 100 126 128 171 119 194 -3 8 -88 56
-189 105 -101 50 -286 145 -413 211 -126 66 -240 121 -251 121 -14 0 -31 -14
-49 -42 -50 -77 -206 -226 -305 -293 -153 -103 -304 -165 -516 -214 -488 -112
-1064 14 -1411 308 -111 95 -252 280 -328 431 -61 121 -137 382 -117 402 7 7
609 11 1876 12 1704 1 1867 2 1881 17 51 51 41 677 -15 919 -79 342 -125 480
-231 692 -237 473 -588 819 -1059 1045 -143 68 -221 96 -415 148 -236 64 -492
88 -785 74z m345 -919 c482 -55 877 -329 1068 -741 49 -105 78 -199 101 -332
11 -57 10 -69 -2 -80 -11 -9 -332 -12 -1383 -15 -1332 -2 -1368 -2 -1378 16
-21 40 51 280 131 433 235 453 699 723 1248 728 69 0 166 -4 215 -9z"/>
<path d="M47540 8159 c-333 -16 -656 -98 -940 -237 -224 -110 -417 -248 -586
-418 -147 -148 -223 -241 -326 -399 -502 -766 -561 -1858 -145 -2688 67 -134
218 -357 323 -478 47 -54 92 -103 99 -107 8 -4 44 -37 82 -73 272 -262 683
-472 1083 -553 213 -43 292 -51 545 -50 267 0 361 10 558 59 291 71 478 159
698 326 77 59 328 312 357 361 14 24 40 43 48 36 1 -2 4 -147 5 -323 1 -176 6
-330 10 -342 l9 -23 474 0 c406 0 477 2 489 15 13 13 15 304 15 2387 0 1422
-4 2380 -10 2391 -8 16 -42 17 -488 17 -365 0 -481 -3 -486 -12 -4 -7 -10
-164 -12 -350 -3 -186 -8 -338 -13 -338 -4 0 -36 37 -70 83 -216 286 -550 519
-884 616 -302 87 -528 114 -835 100z m509 -944 c119 -18 243 -46 317 -74 63
-23 156 -62 169 -71 6 -4 42 -24 80 -45 359 -195 630 -591 721 -1055 28 -145
26 -515 -4 -657 -73 -340 -215 -592 -471 -836 -199 -189 -424 -302 -737 -368
-155 -33 -427 -33 -592 -1 -510 102 -878 379 -1097 827 -64 129 -104 247 -136
400 -19 92 -23 141 -23 295 -1 187 7 262 45 414 102 406 359 763 690 959 88
52 262 137 280 137 8 0 31 6 54 14 187 64 494 91 704 61z"/>
<path d="M42145 8140 c-571 -78 -1018 -284 -1393 -644 -532 -509 -805 -1200
-779 -1971 7 -202 16 -275 57 -455 110 -484 343 -904 684 -1230 389 -373 840
-584 1420 -666 147 -21 478 -29 619 -15 211 21 520 83 647 130 282 106 432
184 650 339 212 152 333 269 481 467 121 162 181 267 163 284 -22 22 -850 431
-871 431 -17 0 -31 -12 -51 -46 -47 -80 -175 -236 -254 -309 -96 -90 -193
-155 -321 -215 -223 -104 -378 -140 -642 -147 -166 -5 -205 -2 -310 16 -318
58 -572 188 -791 406 -215 215 -344 440 -412 725 -70 287 -67 559 8 855 81
318 290 631 555 832 111 84 309 193 390 214 17 4 71 19 120 32 335 90 631 73
998 -60 177 -63 389 -216 519 -373 44 -54 138 -193 138 -205 0 -3 10 -19 22
-35 16 -22 27 -29 42 -24 31 9 142 60 216 100 36 19 144 73 240 120 407 199
423 209 414 236 -16 52 -173 290 -271 410 -196 242 -579 508 -904 629 -135 50
-168 60 -354 107 -314 80 -717 104 -1030 62z"/>
<path d="M53710 8110 c-476 -66 -831 -287 -1050 -655 -30 -49 -56 -92 -58 -95
-16 -22 -22 70 -22 357 0 297 -2 333 -16 341 -25 14 -967 2 -976 -12 -4 -6 -8
-1082 -8 -2391 0 -1839 3 -2384 12 -2393 9 -9 131 -12 487 -12 262 0 481 4
488 8 9 6 13 324 16 1387 3 1373 3 1381 25 1490 38 190 107 367 193 491 48 71
163 188 239 244 71 52 228 137 282 150 18 5 65 18 103 29 131 38 255 51 496
51 125 0 234 3 243 6 14 5 16 60 16 509 l0 503 -22 6 c-45 12 -326 3 -448 -14z"/>
<path d="M26389 8054 c-12 -14 -14 -402 -17 -2390 -3 -1720 0 -2378 8 -2393
11 -21 16 -21 495 -21 l484 0 15 22 c14 20 16 272 16 2394 l0 2373 -22 15
c-20 14 -83 16 -494 16 -426 0 -473 -2 -485 -16z"/>
<path d="M1490 7181 c-255 -47 -457 -155 -647 -347 -213 -216 -387 -527 -509
-909 -19 -60 -41 -128 -48 -150 -8 -22 -21 -69 -31 -105 -10 -36 -23 -85 -30
-110 -26 -89 -71 -303 -80 -375 -4 -27 -10 -66 -15 -85 -10 -38 -35 -210 -45
-300 -3 -30 -10 -75 -15 -100 -22 -105 -40 -462 -43 -820 -2 -416 -4 -405 66
-471 61 -59 94 -69 227 -69 67 0 130 -5 141 -10 17 -9 19 -22 19 -103 0 -272
85 -863 165 -1142 59 -206 87 -292 120 -370 7 -17 16 -45 19 -62 4 -18 12 -35
17 -38 5 -4 9 -14 9 -23 1 -28 82 -182 152 -288 132 -198 287 -322 484 -387
68 -22 77 -22 589 -22 590 0 568 -2 740 84 74 37 107 63 186 141 189 189 284
364 409 755 25 80 63 245 90 390 17 88 32 167 35 175 13 43 37 246 45 377 4
81 12 156 15 165 4 10 10 95 13 189 6 138 10 173 22 179 8 4 39 18 68 31 68
29 153 118 187 194 24 55 25 65 24 239 -1 242 -25 666 -48 866 -6 47 -13 112
-16 145 -3 33 -10 83 -15 110 -5 28 -16 91 -24 140 -49 296 -92 490 -157 700
-153 492 -295 781 -510 1039 -164 196 -340 310 -559 363 -65 15 -131 18 -515
19 -380 2 -453 0 -535 -15z m1005 -375 c124 -35 215 -93 309 -198 292 -321
552 -1059 642 -1823 23 -192 42 -442 55 -690 16 -334 8 -375 -82 -394 -70 -15
-456 -26 -602 -16 -113 7 -120 9 -153 38 -65 57 -65 52 -75 465 -11 473 -26
655 -85 1000 -54 324 -195 772 -310 989 -141 265 -203 333 -304 333 -63 0
-119 -33 -157 -92 -44 -72 -38 -106 42 -223 161 -236 273 -532 349 -925 41
-215 52 -278 65 -400 6 -52 15 -133 21 -180 5 -47 17 -256 25 -465 18 -423 32
-531 88 -644 45 -92 127 -177 207 -215 l65 -31 303 -3 c238 -2 304 -6 308 -16
8 -20 -14 -426 -31 -566 -61 -522 -227 -1088 -378 -1288 -51 -67 -150 -144
-226 -174 -55 -23 -64 -23 -515 -26 -434 -3 -461 -2 -515 17 -115 40 -174 85
-246 186 -42 58 -134 229 -162 300 -60 153 -125 361 -158 510 -9 44 -21 90
-25 101 -5 12 -11 43 -15 70 -4 27 -13 78 -20 114 -30 142 -61 397 -76 620
l-10 165 33 28 c47 40 78 61 84 55 3 -3 7 -77 10 -164 3 -88 10 -197 15 -244
6 -47 14 -119 19 -160 8 -70 17 -118 55 -297 25 -117 92 -309 142 -407 86
-167 205 -258 339 -259 193 -1 348 172 463 518 47 143 84 298 105 450 9 61 21
140 26 176 17 114 24 571 11 724 -32 391 -43 453 -117 692 -50 164 -91 245
-170 345 -62 77 -201 185 -250 194 -83 15 -197 -48 -327 -180 -37 -38 -70 -66
-74 -63 -3 4 4 46 15 94 30 123 135 331 202 400 53 54 46 52 240 86 80 15 86
30 39 118 -37 69 -92 118 -163 144 -42 16 -57 17 -114 7 -243 -41 -436 -269
-548 -647 -101 -339 -158 -674 -174 -1034 -5 -106 -14 -199 -20 -206 -5 -6
-49 -16 -97 -20 -130 -12 -163 -11 -174 6 -16 22 -2 520 22 769 37 406 59 564
104 765 48 213 86 367 105 425 62 185 113 326 140 385 5 11 19 45 32 75 31 76
178 319 237 394 111 138 226 223 368 273 102 35 196 41 618 39 354 -2 418 -5
470 -20z m-928 -2228 c98 -108 173 -373 219 -768 35 -306 -7 -873 -87 -1160
-58 -205 -133 -364 -171 -358 -39 6 -94 135 -145 343 -103 421 -121 1104 -37
1480 22 99 133 425 156 458 24 33 38 34 65 5z"/>
<path d="M9065 6876 c-70 -109 -106 -185 -103 -213 2 -22 21 -40 100 -93 138
-93 131 -87 242 -174 135 -107 371 -343 488 -491 111 -139 275 -381 311 -458
14 -28 48 -99 76 -157 28 -58 51 -110 51 -117 0 -12 7 -30 55 -136 14 -31 30
-76 35 -100 5 -23 18 -73 29 -112 40 -136 77 -360 92 -570 11 -146 -1 -454
-22 -580 -40 -233 -73 -350 -154 -540 -26 -60 -51 -114 -55 -120 -4 -5 -22
-37 -40 -70 -57 -105 -121 -187 -235 -300 -116 -117 -205 -183 -345 -257 -185
-99 -387 -163 -660 -212 -184 -33 -212 -37 -312 -47 -57 -5 -146 -14 -198 -19
-264 -26 -935 -21 -1230 10 -111 11 -269 28 -390 41 -47 5 -107 13 -135 18
-27 6 -97 17 -155 26 -239 38 -455 84 -725 155 -66 17 -138 36 -160 41 -22 5
-51 13 -65 18 -14 5 -61 19 -105 31 -290 80 -924 313 -1205 443 -41 19 -120
53 -175 76 -55 23 -115 48 -132 56 -18 8 -40 12 -48 9 -46 -18 -116 -302 -84
-340 14 -17 85 -52 219 -107 47 -19 123 -51 170 -70 78 -32 252 -102 375 -149
28 -11 68 -25 90 -33 22 -7 119 -41 215 -74 318 -112 535 -181 740 -236 36
-10 85 -23 110 -30 25 -7 79 -20 120 -29 41 -10 103 -24 138 -32 148 -34 191
-43 267 -58 203 -39 534 -87 800 -116 152 -16 592 -40 755 -40 501 0 1048 53
1355 131 153 40 334 96 405 127 143 61 304 154 414 237 107 80 299 267 368
358 99 130 228 359 273 487 77 219 116 386 160 686 20 137 20 531 0 691 -24
189 -56 367 -85 468 -4 17 -18 66 -30 110 -12 44 -26 91 -32 105 -5 13 -19 51
-30 85 -11 33 -26 74 -34 92 -8 17 -14 34 -14 38 0 9 -107 223 -147 295 -59
104 -276 419 -352 510 -159 190 -232 269 -366 392 -128 119 -360 308 -379 308
-3 0 -39 20 -79 45 -103 62 -127 61 -172 -9z"/>
</g>
</svg>
