<svg xmlns="http://www.w3.org/2000/svg" viewBox="0 0 2283 1662" fill="currentColor" role="img" aria-label="sidecar">
<g transform="translate(0.000000,1662.000000) scale(0.100000,-0.100000)">
<path d="M12190 16605 c-19 -8 -44 -14 -55 -15 -11 0 -47 -9 -80 -19 -207 -65
-364 -201 -459 -395 -67 -137 -80 -194 -80 -356 0 -140 1 -149 34 -240 65
-185 170 -319 324 -415 205 -127 446 -154 673 -76 108 37 179 80 268 164 40
37 77 67 83 67 9 0 166 -84 187 -100 6 -4 76 -44 158 -89 81 -45 211 -120 289
-167 78 -47 194 -115 257 -151 225 -127 220 -118 221 -409 0 -116 -3 -214 -7
-218 -4 -3 -26 13 -50 36 l-44 43 -127 -2 c-70 -1 -206 -11 -303 -21 -157 -17
-179 -22 -216 -46 -47 -31 -83 -82 -101 -141 -20 -66 -24 -69 -114 -76 -85 -7
-322 -28 -623 -54 -93 -8 -233 -20 -310 -25 -77 -6 -179 -15 -226 -21 -86 -11
-144 -9 -209 8 -74 20 -135 -14 -171 -96 -24 -55 -27 -207 -4 -272 39 -113 73
-144 157 -144 64 0 98 22 98 62 0 40 33 63 92 63 57 0 160 15 528 75 47 7 116
19 155 25 219 36 548 80 595 80 30 0 82 5 115 10 33 6 126 15 206 20 81 5 168
14 193 20 51 11 86 1 86 -25 0 -22 -28 -32 -131 -50 -52 -9 -128 -22 -169 -30
-98 -19 -258 -41 -395 -55 -268 -26 -1051 -153 -1071 -173 -17 -17 113 -18
286 -4 107 9 296 24 420 32 124 8 284 20 357 26 72 7 138 9 145 6 8 -3 27 -30
43 -61 41 -81 108 -126 188 -126 53 0 223 16 395 37 110 13 139 20 175 43 39
24 74 76 91 133 5 14 18 17 78 17 86 0 122 18 153 77 l20 38 100 6 c283 19
432 21 505 10 208 -34 300 -77 625 -292 232 -153 241 -159 285 -182 19 -11 54
-30 78 -43 94 -52 281 -124 323 -124 15 0 54 7 86 15 93 24 198 18 428 -25 28
-5 75 -12 105 -15 67 -8 155 -37 155 -50 0 -12 -261 -7 -320 6 -70 15 -235 10
-326 -10 -213 -47 -404 -178 -425 -290 -8 -41 11 -218 33 -301 16 -66 40 -101
77 -113 42 -14 73 -1 96 41 24 42 82 87 103 79 8 -3 17 -20 20 -39 4 -18 14
-62 22 -98 8 -36 22 -101 30 -145 7 -44 21 -118 30 -165 17 -94 38 -210 60
-340 8 -47 25 -141 39 -210 14 -69 32 -165 41 -215 9 -49 20 -110 25 -135 6
-25 14 -74 20 -110 5 -36 17 -99 25 -140 40 -197 40 -192 21 -232 -20 -42 -18
-84 4 -81 8 1 61 18 117 37 148 51 318 69 473 51 63 -7 122 -16 130 -19 15 -5
246 -39 350 -51 92 -10 111 -37 28 -38 -24 -1 -178 0 -343 2 -236 2 -318 0
-385 -12 -118 -22 -244 -66 -337 -118 -87 -50 -199 -154 -209 -196 -5 -18 5
-91 26 -198 44 -231 45 -234 84 -287 23 -33 36 -64 40 -100 4 -29 21 -123 37
-208 16 -85 43 -222 59 -305 15 -82 36 -190 45 -240 19 -106 42 -214 57 -270
6 -22 14 -62 18 -90 9 -56 33 -182 55 -295 21 -107 56 -298 62 -345 8 -59 28
-90 77 -124 33 -23 45 -38 49 -63 2 -18 12 -71 21 -118 28 -141 44 -221 60
-308 8 -45 17 -86 20 -90 3 -5 10 -47 16 -95 11 -84 11 -88 -18 -174 -35 -105
-83 -295 -121 -483 -6 -30 -16 -80 -22 -110 -12 -62 -32 -198 -54 -375 -72
-567 -121 -1575 -81 -1668 30 -71 110 -107 237 -107 82 0 89 -4 89 -55 0 -42
-21 -48 -148 -43 -122 5 -160 16 -230 66 -53 39 -73 90 -82 216 -9 137 6 992
20 1136 6 58 15 155 20 215 4 61 13 151 20 200 6 50 18 144 26 210 32 259 91
549 159 780 15 50 31 108 37 130 11 46 5 148 -17 250 -25 119 -44 228 -50 285
-10 86 -23 117 -66 151 -42 33 -79 94 -79 130 0 13 -6 48 -14 78 -8 31 -21 94
-29 141 -9 47 -36 193 -62 325 -25 132 -59 312 -76 400 -17 88 -34 180 -40
205 -5 25 -16 83 -24 130 -27 149 -33 182 -59 305 -14 66 -26 146 -26 177 0
48 -4 63 -28 90 -36 43 -56 94 -77 198 -9 47 -21 105 -27 130 -50 219 -49 279
12 412 17 40 19 54 11 85 -34 130 -41 162 -41 184 0 13 -7 35 -16 47 -23 33
-40 14 -47 -51 -10 -97 -91 -415 -154 -607 -116 -348 -318 -717 -505 -921
-161 -175 -377 -294 -607 -334 -252 -44 -771 9 -1231 126 -244 62 -339 105
-425 193 -81 82 -121 162 -142 286 -16 93 -16 110 0 287 9 103 21 204 26 223
5 19 16 69 26 110 25 113 97 350 125 415 5 11 25 61 45 110 72 180 143 325
228 464 161 264 269 404 447 580 152 151 275 253 406 337 49 31 105 67 124 80
73 48 305 168 395 205 72 30 107 43 160 60 131 42 242 73 335 92 41 9 109 23
150 32 41 8 103 15 136 15 81 0 87 8 74 96 -5 38 -10 72 -10 77 0 12 -119 8
-219 -9 -125 -20 -225 -45 -426 -106 -203 -61 -374 -136 -610 -268 -22 -12
-96 -60 -165 -105 -311 -208 -603 -501 -832 -835 -65 -96 -168 -265 -168 -278
-1 -4 -11 -19 -23 -34 l-22 -27 -67 19 c-88 24 -258 54 -433 77 -113 14 -215
17 -530 17 -490 0 -640 -16 -895 -96 -225 -71 -339 -181 -413 -398 -64 -187
-80 -551 -31 -689 34 -96 104 -221 151 -269 7 -7 13 -17 13 -22 0 -10 -43 -42
-116 -86 -29 -17 -73 -49 -99 -70 -61 -51 -178 -192 -172 -208 3 -7 54 -37
113 -67 249 -125 428 -272 522 -429 55 -93 102 -221 102 -279 0 -65 11 -81
121 -171 365 -302 732 -699 901 -975 56 -92 174 -320 188 -365 5 -14 18 -50
30 -80 12 -30 36 -102 55 -160 60 -188 79 -276 136 -625 6 -38 14 -191 16
-340 8 -420 -31 -704 -149 -1085 -29 -94 -36 -114 -78 -220 -49 -122 -195
-383 -282 -506 -207 -288 -508 -546 -828 -708 -392 -200 -745 -293 -1325 -351
-431 -43 -1163 -46 -1555 -5 -52 5 -149 14 -215 20 -116 11 -542 75 -695 104
-278 54 -688 166 -1040 283 -278 92 -861 322 -1180 465 -25 12 -63 29 -86 38
-23 10 -65 29 -95 43 -150 70 -231 107 -235 107 -2 0 -93 43 -201 96 -532 259
-791 388 -819 410 -27 20 -35 36 -49 100 -11 49 -13 80 -7 86 6 6 68 -19 173
-70 90 -44 187 -90 214 -102 28 -13 115 -54 194 -91 79 -38 144 -69 146 -69 2
0 41 -18 87 -39 175 -82 240 -111 244 -111 4 0 47 -18 119 -50 11 -5 43 -18
70 -30 28 -12 64 -28 81 -35 315 -143 907 -373 1274 -495 404 -135 790 -240
1085 -295 39 -7 115 -22 170 -33 609 -125 1671 -160 2420 -81 333 35 648 107
897 205 443 174 812 493 1064 919 77 130 89 156 164 340 29 71 89 272 125 415
19 76 42 221 60 377 33 292 6 754 -60 1008 -27 104 -48 181 -55 205 -42 129
-49 169 -48 270 2 116 -8 153 -78 292 -109 219 -265 429 -528 713 -171 183
-243 254 -402 392 -73 63 -134 123 -137 134 -3 11 -3 36 0 54 14 87 -97 279
-236 407 -116 108 -341 239 -596 348 -149 64 -180 83 -209 129 -27 43 -80 168
-126 296 -54 155 -87 233 -166 400 -139 294 -306 504 -544 685 -75 57 -214
150 -224 150 -3 0 -27 13 -53 28 -162 94 -537 223 -838 286 -441 93 -1004 139
-1428 116 -385 -20 -586 -40 -847 -86 -233 -41 -376 -74 -575 -134 -16 -5 -52
-16 -80 -24 -305 -90 -595 -237 -802 -408 -415 -343 -607 -932 -538 -1652 9
-87 14 -161 11 -163 -2 -2 -44 -19 -92 -37 -242 -90 -424 -217 -410 -286 2
-15 29 -78 59 -141 115 -242 135 -294 244 -664 8 -27 19 -61 24 -75 4 -14 17
-65 29 -115 11 -49 23 -99 25 -110 9 -35 52 -238 64 -295 31 -154 81 -541 106
-810 29 -320 35 -428 35 -731 1 -257 -2 -313 -15 -355 -57 -171 -170 -251
-410 -291 -69 -11 -214 -16 -618 -20 -462 -4 -542 -3 -635 12 -184 29 -294 76
-364 155 -80 89 -96 157 -108 460 -26 621 -64 986 -166 1575 -50 291 -151 676
-230 877 -125 318 -279 540 -422 610 -116 58 -252 51 -364 -17 -96 -59 -93
-43 12 72 97 105 157 147 241 169 58 15 67 15 127 -1 167 -46 342 -222 465
-470 145 -292 240 -576 342 -1015 72 -311 140 -792 175 -1240 6 -74 13 -142
15 -150 3 -8 9 -142 15 -298 8 -239 13 -290 28 -325 23 -52 72 -103 121 -123
114 -50 497 -71 991 -54 363 12 463 31 533 98 63 59 62 55 59 412 -5 697 -83
1336 -238 1970 -14 58 -29 121 -34 140 -4 19 -29 98 -55 175 -27 77 -56 163
-65 190 -59 171 -183 420 -291 580 -198 295 -451 476 -770 549 -157 37 -292
49 -529 49 -474 1 -756 -79 -1025 -288 -184 -144 -357 -381 -480 -660 -58
-132 -48 -107 -130 -350 -57 -170 -93 -295 -105 -360 -4 -22 -12 -58 -18 -80
-15 -56 -37 -155 -57 -255 -9 -47 -23 -112 -30 -145 -15 -67 -36 -193 -59
-360 -9 -60 -23 -155 -31 -210 -8 -56 -15 -118 -15 -139 0 -21 -7 -96 -14
-165 -8 -69 -22 -216 -30 -326 -9 -110 -21 -261 -26 -335 -23 -291 -23 -337 0
-384 38 -80 87 -106 199 -106 44 0 83 -5 86 -10 4 -6 6 -95 5 -198 -3 -506 46
-1141 125 -1632 7 -47 21 -132 30 -190 34 -214 102 -504 163 -690 13 -41 28
-88 32 -105 70 -252 224 -557 375 -744 66 -82 104 -118 180 -169 188 -126 338
-157 770 -157 358 0 515 18 675 76 239 87 454 317 618 659 45 94 45 93 132
340 82 235 112 348 180 695 16 83 36 184 45 225 20 104 45 319 55 485 5 77 13
196 19 265 6 69 15 249 21 400 6 151 13 285 16 298 4 21 9 23 62 20 l57 -3 0
-225 c0 -124 3 -230 8 -237 6 -10 61 -42 277 -161 104 -57 243 -130 365 -192
72 -36 130 -70 130 -75 0 -6 -153 -11 -397 -13 -456 -3 -412 9 -421 -112 -7
-84 -32 -287 -45 -367 -5 -29 -5 -58 -1 -64 6 -10 229 -12 1052 -10 l1045 2
63 -27 c489 -205 1064 -399 1499 -504 1051 -252 2412 -299 3385 -115 373 71
735 205 986 366 l76 49 564 0 c310 1 663 6 784 12 266 12 269 12 421 3 101 -7
129 -5 170 9 69 23 110 54 148 111 44 66 66 142 66 232 0 70 2 75 43 132 23
33 48 62 56 66 15 6 93 -16 337 -95 155 -50 296 -88 419 -111 94 -19 1767 -19
1920 0 108 13 261 48 338 77 37 14 50 16 56 6 4 -7 15 -72 25 -145 21 -160 42
-297 60 -397 8 -41 22 -115 31 -165 29 -163 51 -263 89 -410 8 -33 25 -96 36
-140 26 -104 42 -162 74 -260 15 -44 40 -123 57 -175 17 -52 36 -108 43 -125
7 -16 19 -46 26 -65 61 -164 206 -479 274 -595 20 -33 39 -67 43 -75 4 -8 26
-43 50 -77 24 -35 43 -65 43 -68 0 -8 98 -142 163 -222 77 -96 242 -261 314
-315 32 -23 62 -49 66 -55 6 -10 276 -13 1308 -13 l1300 0 102 77 c336 254
597 621 820 1153 126 300 259 705 307 935 110 529 135 692 190 1200 43 396 33
1196 -21 1680 -5 50 -14 131 -19 180 -5 50 -14 117 -19 150 -5 33 -17 107 -26
165 -18 116 -26 156 -90 470 -10 47 -29 128 -42 180 -14 52 -37 145 -53 205
-15 61 -46 164 -68 230 -47 139 -125 359 -140 395 -5 14 -20 50 -32 80 -57
139 -195 418 -273 550 -45 75 -127 199 -137 205 -5 3 -10 15 -10 25 0 18 7 19
148 13 136 -5 150 -4 187 15 154 79 167 261 32 457 -89 130 -327 366 -492 488
-344 257 -643 379 -1115 456 -320 53 -698 46 -1062 -18 -247 -43 -493 -118
-692 -210 -234 -108 -509 -306 -662 -476 -95 -105 -97 -110 -83 -195 7 -40 17
-70 24 -70 6 0 47 34 91 76 179 173 377 290 570 339 118 31 322 34 454 9 211
-40 419 -163 648 -383 134 -128 202 -142 452 -93 242 48 446 75 670 87 134 8
491 -8 670 -30 69 -9 150 -18 180 -21 30 -3 67 -10 82 -16 42 -16 118 -149
118 -206 l0 -25 -82 6 c-46 4 -191 16 -323 27 -512 43 -896 21 -1320 -74 -181
-41 -315 -32 -437 30 -29 15 -100 72 -166 136 -135 130 -201 180 -308 235
-222 115 -476 135 -699 56 -94 -33 -209 -91 -286 -144 -78 -52 -242 -209 -316
-302 -30 -38 -58 -66 -61 -62 -3 3 -9 29 -13 58 -3 29 -11 72 -17 97 -6 25
-19 81 -28 125 -9 44 -23 107 -30 141 -8 33 -14 71 -14 85 0 22 -12 81 -42
209 -6 25 -14 65 -18 90 -4 25 -13 72 -20 105 -6 33 -18 92 -25 130 -31 155
-47 233 -61 292 -8 34 -14 71 -14 84 0 12 -6 45 -14 73 -23 82 -46 199 -46
232 0 20 6 34 16 38 9 3 437 6 952 6 798 0 941 -2 962 -15 14 -8 34 -18 45
-24 34 -15 45 -35 61 -112 8 -41 20 -91 25 -113 l10 -38 112 8 c241 19 591 2
800 -38 68 -13 80 -5 66 46 -5 17 -24 107 -44 199 l-35 168 20 39 c28 54 26
140 -6 296 -38 186 -54 224 -125 285 -32 29 -59 59 -59 67 0 9 -7 43 -14 76
-8 34 -25 106 -36 161 -12 55 -30 138 -41 185 -11 47 -22 95 -24 108 -7 31
-37 28 -57 -5 -30 -51 -190 -214 -267 -272 -218 -165 -364 -235 -646 -307
-104 -27 -122 -28 -325 -28 -186 0 -227 3 -305 22 -325 78 -562 205 -806 430
-175 162 -364 479 -435 732 -54 189 -68 316 -60 550 6 188 25 308 70 445 34
102 112 286 148 348 15 26 28 50 28 52 0 11 68 116 114 175 81 106 164 186
291 283 105 81 295 191 360 210 11 3 45 15 75 26 69 26 178 55 292 77 65 12
128 15 243 13 179 -5 170 -10 156 91 -5 36 -14 106 -21 155 -15 113 -46 181
-113 241 -93 83 -224 131 -434 159 -438 57 -889 -50 -1080 -258 -98 -106 -121
-210 -85 -383 12 -54 23 -115 24 -134 l3 -35 -191 -7 c-181 -6 -193 -7 -230
-31 -50 -32 -83 -67 -115 -125 l-26 -47 -172 -3 c-163 -2 -180 -1 -290 27
-155 39 -283 97 -466 210 -440 274 -530 323 -690 375 -208 69 -439 91 -700 65
-77 -7 -171 -14 -210 -14 l-70 0 -6 35 c-3 19 -12 49 -21 65 -12 23 -17 81
-22 240 -8 238 -20 303 -72 382 -40 61 -49 68 -389 268 -137 81 -302 177 -365
215 -63 37 -142 82 -175 101 -33 18 -89 49 -124 68 -84 47 -89 56 -68 123 31
98 42 235 29 340 -14 106 -28 151 -83 263 -85 176 -259 327 -442 382 -153 46
-287 61 -347 38z m-4725 -5695 c282 -18 432 -30 505 -40 260 -38 413 -66 545
-100 44 -12 98 -26 120 -31 117 -29 335 -114 480 -188 275 -140 448 -296 630
-566 90 -135 136 -235 250 -540 148 -399 150 -401 370 -502 83 -38 196 -98
253 -133 102 -64 192 -143 179 -157 -4 -4 -42 4 -85 16 -414 125 -802 180
-1327 188 -589 10 -1052 -42 -1622 -182 -240 -59 -514 -136 -603 -171 -19 -7
-109 -38 -200 -69 -149 -51 -496 -187 -830 -326 -258 -107 -439 -160 -630
-184 -143 -18 -220 -19 -335 -1 -389 59 -612 283 -738 741 -36 129 -47 236
-47 460 0 290 24 434 115 684 108 298 363 560 705 724 155 74 447 182 560 207
25 5 74 16 110 25 274 65 523 103 830 126 388 30 537 34 765 19z m5635 -694
c0 -3 -12 -37 -27 -77 -24 -65 -31 -74 -82 -107 -197 -126 -432 -214 -711
-268 -142 -27 -452 -25 -575 4 -285 67 -493 178 -523 280 -14 45 -16 92 -4 92
4 0 32 -18 61 -40 127 -95 360 -186 550 -215 370 -55 761 31 1168 257 45 25
92 53 105 62 22 16 38 20 38 12z m3978 -413 c6 -16 16 -55 23 -88 16 -88 35
-181 52 -260 8 -38 23 -106 32 -150 9 -44 23 -109 31 -145 8 -36 21 -96 28
-135 8 -38 22 -106 31 -150 23 -108 42 -204 60 -300 8 -44 17 -89 19 -100 3
-11 15 -72 26 -135 12 -63 28 -145 37 -182 8 -37 13 -73 10 -81 -8 -20 -77
-32 -88 -15 -11 16 -21 55 -44 168 -9 47 -30 144 -45 215 -15 72 -35 168 -44
215 -9 47 -23 119 -32 160 -15 71 -20 100 -59 300 -9 47 -23 114 -30 150 -8
36 -21 101 -30 145 -17 85 -34 157 -59 267 -17 70 -21 130 -9 141 3 4 23 7 43
7 32 0 39 -4 48 -27z m-7288 -1227 c413 -36 691 -90 1010 -195 255 -85 333
-133 635 -399 153 -135 415 -399 518 -521 127 -151 262 -339 335 -466 68 -120
100 -230 82 -290 -25 -85 -94 -162 -180 -202 -97 -45 -162 -67 -285 -97 -38
-10 -92 -24 -119 -32 -26 -8 -57 -14 -68 -14 -11 0 -57 -7 -102 -15 -44 -8
-117 -20 -161 -26 -78 -11 -117 -15 -374 -39 -152 -14 -1040 -8 -1181 8 -52 6
-142 16 -200 22 -152 15 -257 28 -325 39 -33 6 -103 18 -155 26 -312 52 -579
107 -750 155 -19 5 -80 22 -135 36 -55 14 -122 33 -150 41 -27 8 -59 17 -70
20 -11 3 -60 17 -110 33 -49 15 -117 36 -150 45 -88 26 -360 116 -510 170 -71
26 -148 52 -170 59 -76 25 -614 230 -670 256 -11 5 -92 39 -180 75 -88 36
-169 70 -180 75 -20 9 -52 22 -140 60 -27 12 -59 25 -70 30 -90 40 -138 61
-260 114 -77 34 -149 66 -159 72 -31 18 -9 34 47 34 105 1 439 105 722 225 17
7 80 33 140 58 61 25 153 64 205 86 493 206 899 333 1410 440 370 78 657 113
1120 135 131 6 459 -3 630 -18z m4216 -349 c80 -28 304 -77 474 -103 93 -15
171 -18 404 -16 158 1 296 -2 305 -7 9 -5 22 -26 29 -46 17 -46 8 -58 -61 -82
-75 -26 -592 -25 -742 1 -276 48 -517 116 -563 159 -46 43 -7 134 53 124 16
-3 62 -17 101 -30z m2050 -147 c41 -26 74 -78 74 -117 0 -42 -19 -84 -98 -215
-37 -62 -102 -178 -144 -258 -42 -80 -106 -201 -143 -270 -37 -69 -117 -222
-177 -340 -121 -236 -225 -436 -298 -575 -76 -144 -232 -444 -370 -710 -46
-88 -97 -187 -115 -220 -18 -33 -83 -159 -145 -280 -62 -121 -127 -247 -145
-280 -75 -139 -151 -285 -277 -535 -271 -532 -327 -633 -357 -650 -13 -7 -26
-2 -52 19 -19 15 -65 48 -104 73 -110 70 -109 53 -14 240 46 90 106 206 134
258 28 52 84 158 125 235 40 77 92 176 116 221 23 45 87 168 142 275 148 290
281 547 317 614 18 33 79 150 135 260 56 110 175 340 264 510 89 171 204 393
255 495 51 102 97 190 101 195 4 6 114 222 245 480 131 259 252 489 269 512
67 90 176 116 262 63z m-2141 -196 c175 -57 345 -94 569 -124 120 -16 204 -20
433 -20 243 0 284 -2 289 -15 7 -17 -50 -111 -76 -125 -21 -11 -502 -16 -605
-6 -293 28 -707 137 -773 203 -19 19 -23 31 -18 56 7 36 33 67 55 67 9 0 66
-16 126 -36z m3559 -100 c9 -8 16 -23 16 -32 0 -9 7 -48 15 -87 9 -38 23 -101
31 -140 8 -38 21 -97 29 -130 7 -33 21 -98 30 -145 37 -193 46 -238 60 -301 8
-37 15 -76 15 -88 0 -12 6 -47 14 -79 8 -31 22 -93 31 -137 18 -88 38 -186 59
-285 8 -36 22 -103 31 -150 9 -47 23 -112 30 -145 13 -57 26 -124 60 -300 23
-116 44 -221 59 -295 8 -36 21 -101 30 -145 10 -44 23 -109 31 -145 34 -160
44 -211 60 -305 9 -55 21 -120 26 -145 12 -54 2 -64 -69 -75 -47 -7 -109 -32
-149 -61 -20 -14 -22 -14 -31 3 -14 28 -44 164 -107 483 -17 86 -33 164 -59
288 -8 37 -22 101 -31 142 -8 41 -22 104 -30 140 -30 137 -44 208 -60 295 -9
50 -23 119 -30 155 -8 36 -21 103 -30 150 -9 47 -23 112 -30 145 -7 33 -21 96
-30 140 -9 44 -23 109 -31 145 -7 36 -21 101 -30 145 -8 44 -22 109 -29 145
-17 81 -65 321 -75 375 -5 22 -20 93 -34 159 -31 140 -33 193 -8 213 23 18 76
42 142 63 70 23 75 23 94 4z m2797 -261 c88 -118 171 -261 275 -471 149 -302
246 -578 363 -1033 55 -215 128 -612 161 -884 5 -38 13 -108 19 -155 16 -131
39 -529 46 -785 6 -223 -5 -568 -26 -825 -13 -162 -74 -660 -95 -770 -104
-564 -245 -1033 -419 -1405 -79 -169 -155 -317 -193 -377 -9 -14 -30 -48 -46
-75 -62 -102 -136 -195 -136 -168 0 3 26 49 58 102 159 269 269 528 402 948
81 254 174 659 229 990 69 411 92 722 98 1280 5 395 2 486 -17 745 -29 399
-62 692 -106 930 -146 799 -383 1508 -660 1971 -19 31 -34 59 -34 63 0 20 24
-4 81 -81z m-6423 3 c42 -13 104 -31 137 -39 33 -9 78 -20 100 -26 197 -50
412 -79 695 -92 140 -6 259 -15 263 -19 4 -4 -2 -25 -14 -46 -45 -79 -25 -74
-293 -73 -319 0 -481 20 -696 83 -25 8 -72 21 -105 31 -103 29 -197 67 -218
88 -15 15 -18 28 -14 54 12 70 29 75 145 39z m5267 -1 c73 -19 201 -83 273
-136 109 -83 263 -262 361 -422 88 -145 225 -437 276 -592 13 -39 28 -81 33
-95 10 -24 61 -187 87 -280 45 -153 115 -488 149 -705 124 -803 118 -1761 -15
-2505 -66 -370 -148 -664 -294 -1060 -26 -71 -141 -300 -180 -358 -19 -30 -35
-56 -35 -58 0 -17 -160 -211 -222 -270 -261 -247 -571 -278 -852 -85 -116 80
-278 258 -373 411 -142 229 -244 469 -377 890 -54 170 -106 378 -140 555 -8
44 -20 109 -27 145 -7 36 -16 90 -19 120 -4 30 -12 82 -18 115 -39 230 -82
684 -68 721 6 15 12 8 35 -31 43 -74 105 -141 156 -165 25 -12 45 -25 45 -28
0 -46 55 -439 76 -542 9 -41 22 -108 30 -147 76 -389 127 -579 233 -868 110
-303 267 -569 432 -736 80 -80 218 -156 325 -178 117 -25 259 18 385 115 199
153 415 540 537 964 56 193 56 193 87 350 7 36 22 110 33 165 20 96 49 273 71
440 49 362 50 1268 2 1600 -17 118 -40 287 -46 340 -6 49 -9 69 -39 210 -8 39
-22 111 -31 160 -18 94 -47 218 -70 295 -7 25 -21 72 -30 105 -86 297 -210
589 -324 763 -136 207 -247 313 -402 387 -90 43 -208 57 -300 35 -224 -52
-421 -274 -579 -650 -20 -47 -40 -85 -45 -85 -6 0 -11 14 -13 30 -1 17 -9 57
-16 90 -18 76 -41 183 -56 257 l-11 58 46 87 c73 136 146 242 232 333 128 136
254 220 383 254 73 19 221 20 295 1z m2187 -160 c84 -113 119 -177 158 -292
35 -104 36 -113 14 -113 -9 0 -27 26 -46 68 -75 167 -130 273 -177 342 -55 82
-60 93 -33 88 9 -2 47 -44 84 -93z m-19977 -15 c134 -65 251 -319 329 -710 48
-243 76 -455 75 -553 l-1 -72 -9 60 c-5 32 -14 73 -19 91 -6 18 -15 54 -19 80
-17 98 -64 291 -92 374 -32 97 -106 252 -150 317 -79 115 -189 124 -286 24
-34 -36 -106 -165 -143 -256 -45 -111 -145 -499 -164 -635 -3 -19 -12 -78 -20
-130 -56 -352 -76 -666 -76 -1165 0 -561 27 -916 106 -1390 37 -218 106 -497
150 -603 8 -18 14 -37 14 -43 0 -6 23 -58 50 -116 59 -122 140 -214 202 -231
57 -16 111 3 167 57 81 79 136 194 211 447 57 192 85 345 145 799 36 275 55
577 55 908 0 132 4 207 10 207 6 0 23 -22 40 -48 16 -26 43 -60 60 -75 l30
-27 0 -118 c0 -130 -14 -430 -30 -652 -54 -744 -228 -1457 -413 -1698 -116
-150 -212 -193 -320 -142 -127 60 -230 206 -329 468 -66 174 -75 208 -158 557
-10 41 -26 123 -54 275 -35 190 -77 589 -95 920 -14 233 -14 825 -1 978 5 65
14 173 20 242 21 256 45 465 70 610 62 368 101 533 181 774 128 384 296 557
464 476z m12584 -209 c109 -33 189 -52 311 -76 47 -9 105 -21 129 -26 68 -15
242 -29 389 -30 104 0 134 -4 139 -15 6 -16 -31 -97 -53 -115 -20 -17 -398 -6
-524 15 -192 32 -282 55 -430 109 -123 45 -150 63 -150 99 0 77 37 85 189 39z
m21 -365 c202 -63 458 -116 566 -116 34 0 95 -3 137 -6 66 -6 77 -10 77 -26 0
-19 -45 -97 -64 -111 -15 -10 -228 1 -346 19 -164 25 -377 83 -442 122 -26 15
-58 66 -58 91 0 12 36 51 47 51 5 0 42 -11 83 -24z m7148 -70 c15 -8 49 -25
75 -38 27 -13 60 -29 75 -37 39 -20 177 -165 192 -201 17 -40 4 -52 -22 -20
-96 122 -143 160 -284 234 -54 29 -99 57 -102 64 -5 17 34 15 66 -2z m872 -27
c0 -6 -16 -40 -36 -75 -71 -127 -134 -368 -119 -456 5 -29 3 -43 -6 -49 -28
-17 -39 12 -39 98 0 138 54 310 141 445 29 44 59 63 59 37z m-3114 -1005 c65
-19 147 -89 204 -175 39 -59 115 -209 130 -257 5 -15 18 -52 30 -82 12 -30 26
-68 30 -85 33 -115 59 -225 74 -315 10 -58 25 -143 34 -190 12 -66 15 -161 15
-430 1 -362 -2 -401 -55 -665 -78 -399 -215 -660 -386 -738 -66 -30 -162 -29
-223 2 -144 74 -279 298 -359 595 -29 108 -60 270 -60 312 l0 34 79 0 79 0 30
-54 c70 -124 187 -164 281 -97 25 18 101 129 101 148 0 3 6 19 14 36 45 101
79 338 71 492 -11 214 -28 306 -87 460 -55 144 -125 211 -233 224 -44 5 -50 9
-53 31 -2 14 -18 99 -36 190 -48 233 -61 312 -58 334 5 41 116 176 167 204 77
43 131 49 211 26z m2580 -57 c103 -68 185 -160 234 -262 39 -82 50 -125 31
-125 -6 0 -34 42 -64 93 -48 80 -99 148 -158 208 -9 9 -48 40 -85 68 -91 68
-94 70 -94 80 0 16 64 -13 136 -62z m-20129 21 c69 -72 123 -241 164 -518 29
-194 32 -658 5 -845 -44 -312 -112 -496 -198 -541 -57 -29 -117 16 -166 126
-81 182 -123 479 -125 870 0 258 7 343 49 565 45 233 122 375 204 375 28 0 43
-8 67 -32z m20913 23 c0 -5 -24 -48 -54 -95 -74 -118 -118 -245 -162 -463 -2
-13 -12 -23 -21 -23 -14 0 -15 10 -10 78 15 170 96 368 198 484 24 26 49 36
49 19z m130 -995 c0 -7 -22 -43 -49 -79 -52 -69 -123 -183 -160 -254 -23 -47
-41 -56 -41 -21 0 55 104 231 193 328 39 41 57 50 57 26z m-808 -243 c114 -87
221 -247 262 -395 20 -70 20 -68 -4 -68 -13 0 -22 9 -26 28 -13 53 -92 208
-142 278 -28 40 -80 98 -116 130 -37 32 -66 61 -66 66 0 19 33 5 92 -39z
m-3532 -49 c56 -48 73 -96 74 -211 1 -97 0 -103 -29 -145 -104 -149 -241 -62
-239 152 0 101 28 171 83 207 44 30 72 29 111 -3z m-3115 -82 c-13 -59 -63
-119 -122 -147 -62 -30 -167 -55 -230 -55 -36 0 -43 3 -43 19 0 36 52 67 136
81 100 16 137 35 197 101 52 57 75 57 62 1z m-2048 -448 c24 -9 43 -21 43 -25
0 -13 -98 -11 -105 1 -8 13 1 40 12 40 4 0 27 -7 50 -16z m728 -239 c28 -13
57 -30 66 -37 23 -19 59 -80 59 -100 0 -46 -97 -106 -225 -137 -73 -18 -119
-20 -555 -22 -365 -1 -475 1 -478 11 -2 6 9 26 25 43 36 39 111 139 141 188
l22 36 241 6 c133 4 302 7 374 7 94 0 142 4 166 15 50 21 107 18 164 -10z
m8775 -17 c0 -7 -10 -25 -23 -40 -12 -14 -51 -61 -87 -103 -73 -87 -134 -172
-144 -201 -12 -36 -44 -70 -56 -58 -7 7 0 32 27 85 43 87 76 132 179 246 71
78 104 100 104 71z m-884 -340 c64 -50 88 -76 134 -145 55 -82 84 -154 109
-268 19 -84 18 -105 -4 -105 -14 0 -25 21 -25 49 0 34 -49 173 -86 245 -41 80
-80 133 -136 188 -56 54 -50 80 8 36z m723 -830 c-13 -18 -49 -60 -80 -93 -65
-70 -200 -223 -246 -280 -36 -46 -54 -41 -31 8 45 94 369 451 376 415 2 -10
-7 -33 -19 -50z m-927 -385 c60 -64 107 -141 132 -221 41 -131 44 -272 7 -272
-5 0 -12 35 -16 78 -11 136 -74 300 -154 401 -17 21 -31 42 -31 45 0 17 30 2
62 -31z m618 -649 c0 -15 -60 -81 -124 -136 -39 -33 -115 -103 -169 -155 -54
-51 -102 -91 -107 -88 -26 16 55 105 243 266 125 107 157 131 157 113z m-997
-456 c68 -85 97 -169 97 -289 0 -68 -9 -99 -31 -99 -3 0 -9 42 -13 93 -9 119
-26 176 -76 259 -45 75 -46 78 -26 78 8 0 30 -19 49 -42z"/>
<path d="M6880 10655 c-401 -27 -733 -76 -960 -140 -25 -7 -74 -20 -110 -30
-269 -72 -530 -188 -692 -309 -317 -235 -466 -575 -462 -1056 3 -339 63 -558
200 -724 64 -77 153 -137 259 -173 75 -26 90 -28 255 -28 160 0 185 3 285 29
110 28 338 108 490 172 755 315 1358 504 1955 609 52 9 131 23 175 30 100 18
303 40 550 61 225 19 696 14 915 -10 78 -9 139 -11 144 -6 5 5 -1 29 -14 57
-12 26 -26 59 -31 73 -4 14 -17 50 -29 80 -12 30 -25 66 -29 80 -5 14 -20 51
-35 81 -14 31 -26 59 -26 62 0 21 -140 294 -186 364 -142 213 -361 390 -630
507 -141 62 -332 124 -449 146 -22 4 -92 19 -155 33 -107 22 -228 42 -425 67
-128 17 -538 40 -685 38 -74 0 -214 -6 -310 -13z"/>
<path d="M21920 16611 c-8 -5 -37 -13 -65 -16 -60 -8 -152 -37 -218 -71 -260
-130 -420 -401 -419 -709 0 -137 24 -234 88 -362 25 -51 43 -96 40 -102 -4 -6
-44 -36 -89 -67 -307 -215 -626 -443 -656 -468 -38 -33 -69 -89 -85 -154 -12
-45 -16 -113 -16 -274 0 -184 -2 -217 -17 -238 -9 -13 -19 -40 -23 -59 l-5
-36 -155 3 c-229 5 -363 -23 -545 -117 -97 -49 -285 -193 -285 -217 0 -8 17
-22 38 -30 70 -29 234 -115 301 -159 38 -25 76 -45 85 -45 8 0 36 15 60 34
117 89 235 114 383 81 43 -9 87 -18 99 -21 15 -2 25 -18 38 -61 23 -77 62
-131 118 -166 56 -35 220 -61 453 -72 l150 -6 55 28 c35 18 67 44 88 73 18 25
37 51 43 58 13 16 156 10 369 -14 69 -7 150 -14 180 -14 30 0 111 -6 180 -14
69 -8 172 -16 230 -18 88 -2 105 -1 105 12 0 11 -20 18 -70 27 -38 6 -108 19
-155 28 -194 39 -411 78 -664 121 -50 8 -93 17 -98 20 -15 9 -9 84 7 90 14 6
61 -1 285 -41 94 -17 216 -42 270 -55 19 -4 87 -18 150 -30 63 -11 144 -27
180 -34 36 -8 108 -22 160 -31 52 -9 123 -22 157 -30 35 -8 69 -12 77 -9 22 8
43 44 66 114 19 57 20 65 6 104 -8 22 -17 52 -20 66 -3 14 -21 44 -41 67 -43
50 -109 71 -171 54 -48 -13 -130 -14 -209 -1 -65 10 -187 23 -420 45 -360 34
-479 47 -501 55 -13 5 -32 30 -47 62 -36 77 -80 132 -121 152 -53 25 -430 69
-519 61 l-69 -6 4 193 c4 246 -6 226 183 356 66 46 201 139 300 208 341 236
323 227 361 199 12 -8 52 -30 90 -49 157 -78 310 -101 469 -71 288 54 495 219
599 478 29 74 56 206 56 282 0 64 -25 207 -45 265 -85 239 -270 420 -500 491
-119 37 -269 57 -295 40z"/>
<path d="M18800 13659 c-218 -25 -444 -113 -650 -253 -138 -94 -324 -297 -422
-461 -131 -220 -194 -430 -218 -730 -30 -365 84 -765 299 -1050 146 -193 300
-320 533 -438 137 -70 178 -85 338 -124 108 -26 510 -26 620 1 264 64 484 185
682 374 126 121 218 251 303 426 69 142 100 238 129 389 32 165 38 266 27 432
-16 236 -59 391 -167 610 -137 278 -351 504 -619 652 -274 152 -548 207 -855
172z m440 -328 c188 -50 312 -113 457 -233 198 -164 349 -407 409 -658 41
-172 52 -324 33 -471 -40 -320 -167 -582 -380 -784 -142 -135 -302 -221 -514
-277 -111 -30 -392 -32 -505 -5 -250 62 -398 143 -570 316 -167 167 -277 375
-336 636 -25 112 -26 387 0 500 38 167 90 313 141 395 12 19 24 42 28 50 58
130 286 346 462 437 95 49 244 97 355 114 93 13 335 2 420 -20z"/>
<path d="M15760 12063 c-126 -9 -412 -74 -535 -121 -201 -77 -301 -123 -464
-214 -136 -76 -364 -246 -500 -373 -151 -141 -392 -451 -491 -630 -162 -292
-257 -522 -344 -830 -32 -115 -63 -309 -73 -456 -5 -82 -3 -104 16 -158 58
-168 138 -214 501 -285 163 -32 237 -44 495 -78 129 -17 418 -16 515 1 188 34
344 115 481 251 235 234 475 710 614 1220 10 36 24 84 31 108 8 23 14 53 14
67 0 13 4 35 9 49 11 27 43 226 62 381 15 122 15 326 0 460 -23 198 -42 341
-56 415 -7 41 -17 99 -20 128 -5 36 -13 55 -25 62 -17 9 -126 11 -230 3z"/>
<path d="M17703 9645 c-5 -15 7 -83 38 -210 5 -22 13 -60 18 -85 25 -128 62
-313 75 -370 8 -36 20 -93 27 -127 14 -75 30 -93 51 -61 35 53 52 99 103 267
51 171 73 240 136 443 17 54 29 110 27 125 l-3 28 -233 3 c-205 2 -233 0 -239
-13z"/>
</g>
</svg>
